<?xml version="1.0" encoding="UTF-8"?>
<!--Generator: Apple Native CoreSVG 326-->
<!DOCTYPE svg
PUBLIC "-//W3C//DTD SVG 1.1//EN"
       "http://www.w3.org/Graphics/SVG/1.1/DTD/svg11.dtd">
<svg version="1.1" xmlns="http://www.w3.org/2000/svg" xmlns:xlink="http://www.w3.org/1999/xlink" viewBox="0 0 22.4277 18.1695">
 <g>
  <rect height="18.1695" opacity="0" width="22.4277" x="0" y="0"/>
  <path d="M9.71327 18.1633C10.467 18.1633 11.0193 17.6029 11.0193 16.859L11.0193 13.3377L11.2639 13.3377C14.8578 13.3377 17.0508 14.3773 18.6033 17.2631C18.9891 17.9654 19.4647 18.1228 19.9645 18.1228C20.6314 18.1228 21.1566 17.4924 21.1566 16.2992C21.1566 9.20196 18.0437 4.84942 11.2639 4.84942L11.0193 4.84942L11.0193 1.34609C11.0193 0.602146 10.467 0 9.69726 0C9.18007 0 8.81738 0.212109 8.25761 0.737303L0.524413 7.94433C0.13828 8.31094 0 8.71093 0 9.08164C0 9.4373 0.148046 9.85409 0.527928 10.2127L8.25761 17.4758C8.76679 17.9521 9.18906 18.1633 9.71327 18.1633Z" fill="black" fill-opacity="0.85"/>
 </g>
</svg>
