<?xml version="1.0" encoding="UTF-8"?>
<!--Generator: Apple Native CoreSVG 326-->
<!DOCTYPE svg
PUBLIC "-//W3C//DTD SVG 1.1//EN"
       "http://www.w3.org/Graphics/SVG/1.1/DTD/svg11.dtd">
<svg version="1.1" xmlns="http://www.w3.org/2000/svg" xmlns:xlink="http://www.w3.org/1999/xlink" viewBox="0 0 20.5381 23.8262">
 <g>
  <rect height="23.8262" opacity="0" width="20.5381" x="0" y="0"/>
  <path d="M10.0875 21.9957C15.6576 21.9957 20.1767 17.4748 20.1767 11.9082C20.1767 7.01234 16.6779 2.93773 12.0918 2.02914L12.0918 0.721518C12.0918-0.00973073 11.5482-0.190785 10.9961 0.204136L7.84492 2.47249C7.40624 2.78948 7.41425 3.27757 7.84492 3.58831L11.0041 5.85491C11.5482 6.24007 12.0918 6.06077 12.0918 5.33929L12.0918 4.06662C15.5932 4.94963 18.1897 8.10159 18.1897 11.9082C18.1897 16.3873 14.5666 20.0086 10.0875 20.0086C5.60839 20.0086 1.9871 16.3873 1.9871 11.9082C1.9871 9.28147 3.23124 6.98322 5.15742 5.51467C5.61406 5.11877 5.7621 4.55608 5.42305 4.07737C5.10156 3.63402 4.45001 3.53089 3.93946 3.96487C1.51661 5.81819 0 8.69046 0 11.9082C0 17.4748 4.51914 21.9957 10.0875 21.9957Z" fill="black"/>
 </g>
</svg>
